<svg width="16" height="16" viewBox="0 0 16 16" fill="none" xmlns="http://www.w3.org/2000/svg">
<path d="M1.3796 2.31973e-07H14.6196C14.8008 -0.000104865 14.9803 0.035502 15.1478 0.104786C15.3153 0.174071 15.4674 0.275675 15.5956 0.403793C15.7238 0.531911 15.8255 0.684032 15.8949 0.851465C15.9643 1.0189 16 1.19836 16 1.3796V14.6196C16.0002 14.8008 15.9646 14.9803 15.8954 15.1478C15.8261 15.3152 15.7246 15.4674 15.5965 15.5956C15.4684 15.7238 15.3163 15.8255 15.1489 15.8949C14.9815 15.9643 14.802 16 14.6208 16H1.3792C1.01341 16 0.662609 15.8547 0.403958 15.596C0.145308 15.3374 0 14.9866 0 14.6208V1.3796C0 1.01371 0.14535 0.662801 0.404075 0.404076C0.662801 0.145351 1.01371 2.31973e-07 1.3796 2.31973e-07V2.31973e-07Z" fill="white"/>
<path d="M6.22583 9.45639H7.76045V15.7742C7.76045 15.8989 7.86151 16 7.98625 16H10.5883C10.713 16 10.8141 15.8989 10.8141 15.7742V9.48617H12.5782C12.693 9.48617 12.7895 9.40009 12.8026 9.28615L13.0705 6.96027C13.0779 6.89628 13.0576 6.83219 13.0148 6.78417C12.9719 6.73613 12.9106 6.70862 12.8462 6.70862H10.8142V5.25062C10.8142 4.81113 11.0508 4.58825 11.5176 4.58825C11.5841 4.58825 12.8462 4.58825 12.8462 4.58825C12.971 4.58825 13.0721 4.48713 13.0721 4.36245V2.22747C13.0721 2.10273 12.971 2.00167 12.8462 2.00167H11.0152C11.0023 2.00104 10.9736 2 10.9313 2C10.6136 2 9.50927 2.06237 8.63692 2.86488C7.67037 3.75421 7.80474 4.819 7.83684 5.00363V6.70857H6.2258C6.10106 6.70857 6 6.80963 6 6.93437V9.23056C6.00003 9.35528 6.10109 9.45639 6.22583 9.45639Z" fill="#385C8E"/>
</svg>
