<svg width="16" height="16" viewBox="0 0 16 16" fill="none" xmlns="http://www.w3.org/2000/svg">
<rect width="16" height="16" fill="white"/>
<path d="M4 9.66826L3.4974 11.5608L1.6604 11.6C1.1114 10.5729 0.800003 9.39779 0.800003 8.14901C0.800003 6.94146 1.09115 5.80271 1.60724 4.80002H1.60763L3.24308 5.10246L3.95951 6.74219C3.80956 7.18313 3.72783 7.65647 3.72783 8.14901C3.72789 8.68357 3.82389 9.19574 4 9.66826Z" fill="#FBBB00"/>
<path d="M15.0714 6.80002C15.1559 7.22556 15.2 7.66503 15.2 8.11417C15.2 8.61781 15.1446 9.10908 15.039 9.58295C14.6806 11.1955 13.7442 12.6036 12.447 13.6L12.4466 13.5996L10.3461 13.4972L10.0488 11.7239C10.9095 11.2415 11.5822 10.4866 11.9366 9.58295H8V6.80002H11.994H15.0714Z" fill="#518EF8"/>
<path d="M12.3996 13.6417L12.4 13.6421C11.1717 14.6168 9.61149 15.2 7.91303 15.2C5.18359 15.2 2.81055 13.6938 1.6 11.4772L3.92264 9.60001C4.52791 11.1949 6.08618 12.3302 7.91303 12.3302C8.69826 12.3302 9.4339 12.1207 10.0651 11.7548L12.3996 13.6417Z" fill="#28B446"/>
<path d="M12.4 2.51206L10.108 4.48441C9.46307 4.06069 8.70073 3.81592 7.884 3.81592C6.03981 3.81592 4.47279 5.0638 3.90523 6.8L1.60039 4.81662H1.6C2.7775 2.43035 5.14959 0.800003 7.884 0.800003C9.60067 0.800003 11.1747 1.44275 12.4 2.51206Z" fill="#F14336"/>
</svg>
