<svg width="16" height="16" viewBox="0 0 16 16" fill="none" xmlns="http://www.w3.org/2000/svg">
<path d="M1.3796 2.31973e-07H14.6196C14.8008 -0.000104865 14.9803 0.035502 15.1478 0.104786C15.3153 0.174071 15.4674 0.275675 15.5956 0.403793C15.7238 0.531911 15.8255 0.684032 15.8949 0.851465C15.9643 1.0189 16 1.19836 16 1.3796V14.6196C16.0002 14.8008 15.9646 14.9803 15.8954 15.1478C15.8261 15.3152 15.7246 15.4674 15.5965 15.5956C15.4684 15.7238 15.3163 15.8255 15.1489 15.8949C14.9815 15.9643 14.802 16 14.6208 16H1.3792C1.01341 16 0.662609 15.8547 0.403958 15.596C0.145308 15.3374 0 14.9866 0 14.6208V1.3796C0 1.01371 0.14535 0.662801 0.404075 0.404076C0.662801 0.145351 1.01371 2.31973e-07 1.3796 2.31973e-07V2.31973e-07Z" fill="white"/>
<path d="M9.214 4.502V8.03362L6.7944 4.502H4.1796V11.502H6.7876V7.97041L9.2072 11.502H11.822V4.502H9.214Z" fill="#00C73C"/>
</svg>
